<?xml version="1.0" standalone="no"?>
<!DOCTYPE svg PUBLIC "-//W3C//DTD SVG 20010904//EN"
 "http://www.w3.org/TR/2001/REC-SVG-20010904/DTD/svg10.dtd">
<svg version="1.0" xmlns="http://www.w3.org/2000/svg"
 width="178.000000pt" height="72.000000pt" viewBox="0 0 178.000000 72.000000"
 preserveAspectRatio="xMidYMid meet">

<g transform="translate(0.000000,72.000000) scale(0.100000,-0.100000)"
fill="#000000" stroke="none">
<path d="M345 641 c-87 -22 -162 -83 -205 -167 -37 -72 -35 -178 3 -256 34
-69 91 -121 164 -148 51 -19 78 -20 573 -20 495 0 522 1 573 20 106 40 180
135 194 247 13 117 -49 232 -158 292 l-64 36 -525 2 c-289 1 -538 -2 -555 -6z
m1088 -57 c64 -22 131 -89 152 -155 41 -122 -14 -252 -130 -305 l-50 -24 -525
0 -525 0 -50 24 c-158 73 -193 277 -69 400 75 76 64 74 640 75 443 1 517 -1
557 -15z"/>
<path d="M340 478 c-74 -51 -95 -116 -62 -191 26 -59 70 -87 136 -87 64 0 108
28 136 85 64 132 -91 274 -210 193z m139 -54 c38 -32 49 -80 27 -122 -19 -38
-47 -54 -91 -54 -43 0 -72 16 -90 52 -24 46 -19 78 19 116 43 43 90 46 135 8z"/>
</g>
</svg>
